<svg xmlns="http://www.w3.org/2000/svg" fill="none" viewBox="0 0 1095 768">
  <path
    fill="#5588EB"
    d="M283.4 139L231 86.7a296 296 0 000 418.7l52.4-52.4a222 222 0 010-314z"
  />
  <path
    fill="#5F9EFF"
    d="M649.6 86.7a296 296 0 00-418.6 0l52.4 52.3a222 222 0 11313.9 314l52.3 52.4a296 296 0 000-418.7z"
  />
  <path
    fill="#5588EB"
    d="M283.4 453L231 505.4a296 296 0 00418.6 0L597.3 453a222 222 0 01-314 0z"
  />
  <path
    fill="#D9DFEC"
    d="M335.7 400.7L283.4 453a222 222 0 00313.9 0L545 400.7a148 148 0 01-209.3 0z"
  />
  <path
    fill="#D9DFEC"
    d="M335.7 191.4L283.4 139a222 222 0 000 314l52.3-52.3a148 148 0 010-209.3z"
  />
  <path
    fill="#F7F7F7"
    d="M597.3 139a222 222 0 00-314 0l52.4 52.4A148 148 0 11545 400.7l52.3 52.3a222 222 0 000-314z"
  />
  <path
    fill="#5588EB"
    d="M388 348.4l-52.3 52.3a148 148 0 00209.3 0l-52.3-52.3a74 74 0 01-104.7 0z"
  />
  <path
    fill="#5F9EFF"
    d="M545 191.4a148 148 0 00-209.3 0l52.3 52.3a74 74 0 11104.7 104.7l52.3 52.3a148 148 0 000-209.3z"
  />
  <path
    fill="#5588EB"
    d="M335.7 400.7l52.3-52.3a74 74 0 010-104.7l-52.3-52.3a148 148 0 000 209.3z"
  />
  <path
    fill="#F7F7F7"
    d="M492.7 243.7a74 74 0 00-104.7 0l52.3 52.3 52.4 52.4a74 74 0 000-104.7z"
  />
  <path
    fill="#D9DFEC"
    d="M388 243.7a74 74 0 000 104.7l52.3-52.4-52.3-52.3zM492.7 348.4L440.3 296 388 348.4a74 74 0 00104.7 0zM146.1 603.8h-49L261.3 768h49L146.1 603.8z"
  />
  <path fill="#F7F7F7" d="M49 457.6H0L310.3 768h49L49 457.6z" />
  <path fill="#D9DFEC" d="M408.3 768L98 457.6H49L359.3 768h49z" />
  <path fill="#F7F7F7" d="M457.3 768L147 457.6H98L408.3 768h49z" />
  <path fill="#D9DFEC" d="M506.3 768L196 457.6h-49L457.3 768h49z" />
  <path fill="#F7F7F7" d="M555.3 768L245 457.6h-49L506.3 768h49z" />
  <path fill="#D9DFEC" d="M604.3 768L294 457.6h-49L555.3 768h49z" />
  <path
    fill="#F7F7F7"
    d="M653.3 768L343 457.6h-49L604.3 768h49zM294 457.6L604.3 768 294 457.6z"
  />
  <path fill="#D9DFEC" d="M702.3 768L392 457.6h-49L653.3 768h49z" />
  <path fill="#F7F7F7" d="M441 457.6h-49L702.3 768h49L441 457.6z" />
  <path fill="#D9DFEC" d="M800.3 768L490 457.6h-49L751.3 768h49z" />
  <path fill="#F7F7F7" d="M849.3 768L538.9 457.6h-49L800.4 768h49z" />
  <path fill="#D9DFEC" d="M588 457.6h-49L849.2 768h49L587.8 457.6z" />
  <path fill="#F7F7F7" d="M947.2 768L637 457.6h-49L898.2 768h49z" />
  <path fill="#D9DFEC" d="M996.2 768L686 457.6h-49L947.2 768h49z" />
  <path fill="#F7F7F7" d="M735 457.6h-49L996.1 768h49L735 457.6z" />
  <path fill="#D9DFEC" d="M1094.2 768L784 457.6h-49L1045.2 768h49z" />
  <path fill="#F7F7F7" d="M97.2 554.7v49L2.7 509.6 0 457.6l97.2 97.1z" />
  <path fill="#C3CFE6" d="M195.2 554.7l-49 49h-49l49-49h49z" />
  <path fill="#D9DFEC" d="M244.2 554.7l-49 49h-49l49-49h49z" />
  <path fill="#C3CFE6" d="M293.1 554.7l-49 49h-49l49-49h49z" />
  <path fill="#D9DFEC" d="M342.1 554.7l-49 49h-49l49-49h49z" />
  <path fill="#C3CFE6" d="M391.1 554.7l-49 49h-49l49-49h49z" />
  <path fill="#D9DFEC" d="M440.1 554.7l-49 49h-49l49-49h49z" />
  <path fill="#C3CFE6" d="M489.1 554.7l-49 49h-49l49-49h49z" />
  <path fill="#D9DFEC" d="M538.1 554.7l-49 49h-49l49-49h49z" />
  <path fill="#C3CFE6" d="M538.1 554.7h49l-49 49h-49l49-49z" />
  <path fill="#D9DFEC" d="M636.1 554.7l-49 49h-49l49-49h49z" />
  <path fill="#C3CFE6" d="M685.1 554.7l-49 49h-49l49-49h49z" />
  <path fill="#D9DFEC" d="M734.1 554.7l-49 49h-49l49-49h49z" />
  <path fill="#C3CFE6" d="M783.1 554.7l-49 49h-49l49-49h49z" />
  <path fill="#D9DFEC" d="M832.1 554.7l-49 49h-49l49-49h49z" />
  <path fill="#C3CFE6" d="M881 554.7l-48.9 49h-49l49-49h49z" />
  <path
    fill="#D9DFEC"
    d="M930 554.7l-48.9 49h-49l49-49h49zM97.2 603.7l49-49h-49v49z"
  />
  <path
    stroke="#D9DFEC"
    stroke-dasharray="5.7 5.7"
    stroke-linecap="round"
    stroke-linejoin="round"
    stroke-miterlimit="10"
    stroke-width="1.7"
    d="M48 454.7h785.2"
  />
  <path
    fill="#F7F7F7"
    d="M734.6 360.3l-.2-97.4L832 360l97.5 97.2-97.4.2-97.5-97.2z"
  />
  <path
    fill="#BFCBE2"
    d="M734.8 457.6l-.2-97.3-97.4.1 97.6 97.2zM832.3 554.9l-.2-97.4-97.3.1 97.5 97.3z"
  />
  <path fill="#D5DBE8" d="M832.1 457.5l-97.3.1-.2-97.3 97.5 97.2z" />
  <path
    fill="#5F9EFF"
    d="M807.3 408.8a24 24 0 00-41-16.9l34 33.9a24 24 0 007-17z"
  />
  <path
    fill="#5588EB"
    d="M783.4 432.8c6.6 0 12.6-2.7 17-7l-34-33.9a24 24 0 0017 41z"
  />
  <path
    fill="#D5DBE8"
    d="M637.2 360.4l97.4-.1-.2-97.4-97.2 97.5zM929.5 457.3l-97.4.2.2 97.4 97.2-97.6z"
  />
  <path
    fill="#F7F7F7"
    d="M587.3 360.3l-.2-97.4 97.5 97.2 97.6 97.2-97.4.2-97.5-97.2z"
  />
  <path
    fill="#BFCBE2"
    d="M587.5 457.6l-.2-97.3-97.4.1 97.6 97.2zM685 554.9l-.2-97.4-97.3.1L685 555z"
  />
  <path fill="#D5DBE8" d="M684.8 457.5l-97.3.1-.2-97.3 97.5 97.2z" />
  <path
    fill="#5F9EFF"
    d="M660 408.8a24 24 0 00-41-16.9l34 33.9c4.4-4.4 7-10.4 7-17z"
  />
  <path
    fill="#5588EB"
    d="M636.1 432.8c6.6 0 12.6-2.7 17-7l-34-33.9a24 24 0 0017 41z"
  />
  <path
    fill="#D5DBE8"
    d="M489.9 360.4l97.4-.1-.2-97.4-97.2 97.5zM782.2 457.3l-97.4.2.2 97.4 97.2-97.6z"
  />
  <path
    fill="#F7F7F7"
    d="M440.3 360.3l-.2-97.4 97.6 97.2 97.5 97.2-97.3.2-97.6-97.2z"
  />
  <path
    fill="#BFCBE2"
    d="M440.5 457.6l-.2-97.3-97.4.1 97.6 97.2zM538 554.9l-.1-97.4-97.4.1L538 555z"
  />
  <path fill="#D5DBE8" d="M537.9 457.5l-97.4.1-.2-97.3 97.6 97.2z" />
  <path
    fill="#5F9EFF"
    d="M513 408.8a24 24 0 00-40.9-16.9l34 33.9a24 24 0 007-17z"
  />
  <path
    fill="#5588EB"
    d="M489.1 432.8c6.6 0 12.6-2.7 17-7l-34-33.9a24 24 0 0017 41z"
  />
  <path
    fill="#D5DBE8"
    d="M343 360.4l97.3-.1-.2-97.4-97.2 97.5zM635.2 457.3l-97.3.2.1 97.4 97.2-97.6z"
  />
  <path
    fill="#F7F7F7"
    d="M293.3 360.3l-.2-97.4 97.6 97.2 97.6 97.2-97.4.2-97.6-97.2z"
  />
  <path
    fill="#BFCBE2"
    d="M293.5 457.6l-.2-97.3-97.3.1 97.5 97.2zM391 554.9l-.1-97.4-97.4.1 97.6 97.3z"
  />
  <path fill="#D5DBE8" d="M390.9 457.5l-97.4.1-.2-97.3 97.6 97.2z" />
  <path
    fill="#5F9EFF"
    d="M366 408.8a24 24 0 00-40.9-16.9l34 33.9a24 24 0 007-17z"
  />
  <path
    fill="#5588EB"
    d="M342.2 432.8c6.6 0 12.6-2.7 16.9-7l-34-33.9a23.9 23.9 0 0017 41z"
  />
  <path
    fill="#D5DBE8"
    d="M196 360.4l97.3-.1-.2-97.4-97.1 97.5zM488.3 457.3l-97.4.2.2 97.4 97.2-97.6z"
  />
  <path
    fill="#F7F7F7"
    d="M146.4 360.3l-.2-97.4 97.5 97.2 97.6 97.2-97.4.2-97.5-97.2z"
  />
  <path
    fill="#BFCBE2"
    d="M146.5 457.6l-.1-97.3-97.4.1 97.5 97.2zM244.1 554.9l-.2-97.4-97.4.1 97.6 97.3z"
  />
  <path fill="#D5DBE8" d="M244 457.5l-97.5.1-.1-97.3 97.5 97.2z" />
  <path
    fill="#5F9EFF"
    d="M219.1 408.8a24 24 0 00-41-16.9l34 33.9c4.4-4.4 7-10.4 7-17z"
  />
  <path
    fill="#5588EB"
    d="M195.2 432.8c6.6 0 12.6-2.7 17-7l-34-33.9a24 24 0 0017 41z"
  />
  <path
    fill="#D5DBE8"
    d="M49 360.4l97.4-.1-.2-97.4L49 360.4zM341.3 457.3l-97.4.2.2 97.4 97.2-97.6z"
  />
  <path
    stroke="#F7F7F7"
    stroke-dasharray="5.7 5.7"
    stroke-linecap="round"
    stroke-linejoin="round"
    stroke-miterlimit="10"
    stroke-width="1.7"
    d="M98 555h759.4"
  />
</svg>
